<svg width="479" height="48" viewBox="0 0 479 48" fill="none" xmlns="http://www.w3.org/2000/svg">
<g clip-path="url(#clip0_4945_47503)">
<mask id="mask0_4945_47503" style="mask-type:luminance" maskUnits="userSpaceOnUse" x="0" y="0" width="48" height="48">
<path d="M40.766 0H7.19399C3.22086 0 0 3.22355 0 7.2V40.8C0 44.7765 3.22086 48 7.19399 48H40.766C44.7391 48 47.9599 44.7765 47.9599 40.8V7.2C47.9599 3.22355 44.7391 0 40.766 0Z" fill="white"></path>
</mask>
<g mask="url(#mask0_4945_47503)">
<path d="M47.9599 0H0V48H47.9599V0Z" fill="url(#paint0_linear_4945_47503)"></path>
<path d="M6.18237 9C6.18237 7.44672 7.44054 6.1875 8.99253 6.1875H38.9675C40.5195 6.1875 41.7777 7.44672 41.7777 9V23.6794C41.7777 25.2327 40.5195 26.4919 38.9675 26.4919H8.99253C7.44054 26.4919 6.18237 25.2327 6.18237 23.6794V9Z" fill="black"></path>
<path d="M15.1113 12.8233H13.7399C13.2715 12.8233 12.9231 12.7295 12.6945 12.542C12.4697 12.3545 12.3573 12.0658 12.3573 11.6758V9.92647C12.3573 9.53647 12.4697 9.24768 12.6945 9.06018C12.9231 8.86896 13.2715 8.77332 13.7399 8.77332H15.1113C15.1824 8.77332 15.233 8.79019 15.263 8.82397C15.2968 8.85397 15.3136 8.9046 15.3136 8.97582V9.65646C15.3136 9.72768 15.2968 9.78019 15.263 9.81397C15.233 9.84397 15.1824 9.85896 15.1113 9.85896H13.9816C13.8655 9.85896 13.7793 9.88332 13.7231 9.93204C13.6668 9.97704 13.6387 10.0465 13.6387 10.1402V11.479C13.6387 11.5727 13.6668 11.642 13.7231 11.687C13.7793 11.7283 13.8655 11.749 13.9816 11.749H15.1113C15.1824 11.749 15.233 11.7658 15.263 11.7995C15.2968 11.8295 15.3136 11.8802 15.3136 11.9515V12.6208C15.3136 12.692 15.2968 12.7445 15.263 12.7783C15.233 12.8083 15.1824 12.8233 15.1113 12.8233ZM19.3936 11.7602C19.3936 11.9327 19.3674 12.0902 19.3149 12.2327C19.2662 12.3715 19.1762 12.4915 19.0451 12.5927C18.9177 12.6902 18.7416 12.767 18.5168 12.8233C18.292 12.8795 18.0054 12.9077 17.6569 12.9077C17.3084 12.9077 17.0218 12.8795 16.797 12.8233C16.5722 12.767 16.3942 12.6902 16.263 12.5927C16.1356 12.4915 16.0457 12.3715 15.9933 12.2327C15.9446 12.0902 15.9202 11.9327 15.9202 11.7602V8.97582C15.9202 8.9046 15.9352 8.85397 15.9652 8.82397C15.9989 8.79019 16.0514 8.77332 16.1226 8.77332H17.0049C17.0761 8.77332 17.1267 8.79019 17.1567 8.82397C17.1904 8.85397 17.2073 8.9046 17.2073 8.97582V11.5408C17.2073 11.6158 17.2354 11.6795 17.2916 11.732C17.3478 11.7808 17.4733 11.8052 17.6681 11.8052C17.8667 11.8052 17.9941 11.7808 18.0503 11.732C18.1065 11.6795 18.1346 11.6158 18.1346 11.5408V8.97582C18.1346 8.9046 18.1496 8.85397 18.1796 8.82397C18.2133 8.79019 18.2658 8.77332 18.3369 8.77332H19.1912C19.2625 8.77332 19.313 8.79019 19.343 8.82397C19.3767 8.85397 19.3936 8.9046 19.3936 8.97582V11.7602ZM22.0188 12.8233H20.2428C20.1716 12.8233 20.1191 12.8083 20.0854 12.7783C20.0555 12.7445 20.0405 12.692 20.0405 12.6208V11.9627C20.0405 11.8915 20.0555 11.8408 20.0854 11.8108C20.1191 11.777 20.1716 11.7602 20.2428 11.7602H21.7546C21.8034 11.7602 21.839 11.7452 21.8615 11.7152C21.8877 11.6815 21.9008 11.642 21.9008 11.597C21.9008 11.5333 21.8877 11.4865 21.8615 11.4565C21.839 11.4265 21.8034 11.4095 21.7546 11.4058L20.9116 11.2877C20.6493 11.2502 20.4377 11.164 20.2765 11.029C20.1191 10.894 20.0405 10.669 20.0405 10.354V9.76333C20.0405 9.44455 20.1435 9.20083 20.3496 9.03211C20.5556 8.85961 20.8404 8.77332 21.2039 8.77332H22.7776C22.8487 8.77332 22.8993 8.79019 22.9293 8.82397C22.963 8.85397 22.9799 8.9046 22.9799 8.97582V9.64518C22.9799 9.71646 22.963 9.76897 22.9293 9.80269C22.8993 9.83269 22.8487 9.84769 22.7776 9.84769H21.468C21.4193 9.84769 21.3819 9.86454 21.3556 9.89832C21.3294 9.92832 21.3163 9.96769 21.3163 10.0165C21.3163 10.0652 21.3294 10.1065 21.3556 10.1402C21.3819 10.174 21.4193 10.1927 21.468 10.1965L22.3055 10.309C22.5677 10.3465 22.7794 10.4327 22.9406 10.5677C23.1016 10.7027 23.1822 10.9277 23.1822 11.2427V11.8333C23.1822 12.152 23.0773 12.3977 22.8675 12.5702C22.6614 12.739 22.3785 12.8233 22.0188 12.8233ZM25.653 12.8233H24.7425C24.6713 12.8233 24.6189 12.8083 24.5851 12.7783C24.5551 12.7445 24.5401 12.692 24.5401 12.6208V9.85896H23.714C23.6428 9.85896 23.5904 9.84397 23.5566 9.81397C23.5266 9.78019 23.5116 9.72768 23.5116 9.65646V8.97582C23.5116 8.9046 23.5266 8.85397 23.5566 8.82397C23.5904 8.79019 23.6428 8.77332 23.714 8.77332H26.6815C26.7527 8.77332 26.8033 8.79019 26.8332 8.82397C26.867 8.85397 26.8838 8.9046 26.8838 8.97582V9.65646C26.8838 9.72768 26.867 9.78019 26.8332 9.81397C26.8033 9.84397 26.7527 9.85896 26.6815 9.85896H25.8553V12.6208C25.8553 12.692 25.8385 12.7445 25.8047 12.7783C25.7748 12.8083 25.7242 12.8233 25.653 12.8233ZM30.8314 11.7602C30.8314 11.9327 30.8052 12.0902 30.7527 12.2327C30.704 12.3715 30.614 12.4915 30.4829 12.5927C30.3555 12.6902 30.1775 12.767 29.949 12.8233C29.7241 12.8795 29.4375 12.9077 29.0891 12.9077C28.7406 12.9077 28.4521 12.8795 28.2235 12.8233C27.995 12.767 27.8151 12.6902 27.684 12.5927C27.5566 12.4915 27.4667 12.3715 27.4142 12.2327C27.3655 12.0902 27.3411 11.9327 27.3411 11.7602V9.84204C27.3411 9.66954 27.3655 9.51396 27.4142 9.37518C27.4667 9.23268 27.5566 9.11082 27.684 9.0096C27.8151 8.90832 27.995 8.8296 28.2235 8.77332C28.4521 8.7171 28.7406 8.68896 29.0891 8.68896C29.4375 8.68896 29.7241 8.7171 29.949 8.77332C30.1775 8.8296 30.3555 8.90832 30.4829 9.0096C30.614 9.11082 30.704 9.23268 30.7527 9.37518C30.8052 9.51396 30.8314 9.66954 30.8314 9.84204V11.7602ZM28.617 11.5577C28.617 11.6327 28.645 11.6965 28.7013 11.749C28.7574 11.7977 28.8868 11.822 29.0891 11.822C29.2914 11.822 29.4207 11.7977 29.4768 11.749C29.5331 11.6965 29.5612 11.6327 29.5612 11.5577V10.0445C29.5612 9.97332 29.5331 9.91332 29.4768 9.86454C29.4207 9.81204 29.2914 9.78582 29.0891 9.78582C28.8868 9.78582 28.7574 9.81204 28.7013 9.86454C28.645 9.91332 28.617 9.97332 28.617 10.0445V11.5577ZM32.5867 12.8233H31.7492C31.6781 12.8233 31.6256 12.8083 31.5919 12.7783C31.5619 12.7445 31.5469 12.692 31.5469 12.6208V8.97582C31.5469 8.9046 31.5619 8.85397 31.5919 8.82397C31.6256 8.79019 31.6781 8.77332 31.7492 8.77332H32.6541C32.7141 8.77332 32.7628 8.78646 32.8002 8.81268C32.8415 8.83896 32.8789 8.8821 32.9126 8.9421L33.4185 9.85896C33.4372 9.89268 33.4522 9.91704 33.4635 9.93204C33.4784 9.94704 33.4971 9.95454 33.5196 9.95454H33.5702C33.5927 9.95454 33.6096 9.94704 33.6208 9.93204C33.6358 9.91704 33.6527 9.89268 33.6714 9.85896L34.1716 8.9421C34.2053 8.8821 34.2409 8.83896 34.2784 8.81268C34.3196 8.78646 34.3702 8.77332 34.4301 8.77332H35.3406C35.4118 8.77332 35.4624 8.79019 35.4924 8.82397C35.5261 8.85397 35.5429 8.9046 35.5429 8.97582V12.6208C35.5429 12.692 35.5261 12.7445 35.4924 12.7783C35.4624 12.8083 35.4118 12.8233 35.3406 12.8233H34.4751C34.4039 12.8233 34.3514 12.8083 34.3177 12.7783C34.2878 12.7445 34.2728 12.692 34.2728 12.6208V10.6408L33.9412 11.254C33.9074 11.3177 33.8663 11.3645 33.8175 11.3945C33.7726 11.4208 33.7145 11.434 33.6433 11.434H33.4185C33.3473 11.434 33.2873 11.4208 33.2386 11.3945C33.1937 11.3645 33.1544 11.3177 33.1206 11.254L32.789 10.6408V12.6208C32.789 12.692 32.7722 12.7445 32.7384 12.7783C32.7084 12.8083 32.6578 12.8233 32.5867 12.8233ZM11.3877 18.4483H8.52704C8.45582 18.4483 8.40336 18.4333 8.36967 18.4033C8.33969 18.3695 8.32471 18.317 8.32471 18.2458V14.6008C8.32471 14.5295 8.33969 14.479 8.36967 14.449C8.40336 14.4152 8.45582 14.3983 8.52704 14.3983H9.39811C9.46933 14.3983 9.51993 14.4152 9.5499 14.449C9.5836 14.479 9.60044 14.5295 9.60044 14.6008V17.3852H10.3704V16.474C10.3704 16.4027 10.3854 16.352 10.4154 16.322C10.4492 16.2883 10.5016 16.2715 10.5728 16.2715H11.3877C11.4589 16.2715 11.5095 16.2883 11.5395 16.322C11.5732 16.352 11.5901 16.4027 11.5901 16.474V18.2458C11.5901 18.317 11.5732 18.3695 11.5395 18.4033C11.5095 18.4333 11.4589 18.4483 11.3877 18.4483ZM13.6995 15.5795L13.4353 16.4345H14.3177L14.0535 15.5795C14.0385 15.5458 14.0217 15.5215 14.0029 15.5065C13.9879 15.4915 13.9692 15.484 13.9468 15.484H13.8062C13.7837 15.484 13.7631 15.4915 13.7444 15.5065C13.7294 15.5215 13.7144 15.5458 13.6995 15.5795ZM13.3791 18.2458C13.3791 18.317 13.3622 18.3695 13.3285 18.4033C13.2985 18.4333 13.248 18.4483 13.1768 18.4483H12.3506C12.2794 18.4483 12.2269 18.4333 12.1932 18.4033C12.1632 18.3695 12.1483 18.317 12.1483 18.2458V16.7608C12.1483 16.6483 12.1651 16.519 12.1989 16.3727C12.2363 16.2265 12.2925 16.0558 12.3674 15.8608L12.8564 14.584C12.8789 14.5202 12.9126 14.4733 12.9576 14.4433C13.0063 14.4133 13.0681 14.3983 13.1431 14.3983H14.6549C14.7261 14.3983 14.7842 14.4133 14.8292 14.4433C14.8778 14.4733 14.9134 14.5202 14.9359 14.584L15.4249 15.8608C15.4998 16.0558 15.5541 16.2265 15.5879 16.3727C15.6254 16.519 15.6441 16.6483 15.6441 16.7608V18.2458C15.6441 18.317 15.6272 18.3695 15.5935 18.4033C15.5635 18.4333 15.5129 18.4483 15.4417 18.4483H14.5931C14.5181 18.4483 14.462 18.4333 14.4245 18.4033C14.3907 18.3695 14.3739 18.317 14.3739 18.2458V17.4583H13.3791V18.2458ZM19.7832 17.3852C19.7832 17.5577 19.757 17.7152 19.7046 17.8577C19.6558 17.9965 19.5659 18.1165 19.4348 18.2177C19.3074 18.3152 19.1313 18.392 18.9065 18.4483C18.6817 18.5045 18.395 18.5327 18.0465 18.5327C17.6981 18.5327 17.4115 18.5045 17.1867 18.4483C16.9619 18.392 16.7839 18.3152 16.6527 18.2177C16.5253 18.1165 16.4354 17.9965 16.3829 17.8577C16.3343 17.7152 16.3099 17.5577 16.3099 17.3852V14.6008C16.3099 14.5295 16.3249 14.479 16.3549 14.449C16.3886 14.4152 16.441 14.3983 16.5123 14.3983H17.3946C17.4658 14.3983 17.5164 14.4152 17.5464 14.449C17.5801 14.479 17.5969 14.5295 17.5969 14.6008V17.1658C17.5969 17.2408 17.625 17.3045 17.6813 17.357C17.7374 17.4058 17.863 17.4302 18.0578 17.4302C18.2564 17.4302 18.3838 17.4058 18.44 17.357C18.4962 17.3045 18.5243 17.2408 18.5243 17.1658V14.6008C18.5243 14.5295 18.5393 14.479 18.5693 14.449C18.603 14.4152 18.6555 14.3983 18.7266 14.3983H19.5809C19.6521 14.3983 19.7027 14.4152 19.7326 14.449C19.7664 14.479 19.7832 14.5295 19.7832 14.6008V17.3852ZM21.5767 18.4483H20.7336C20.6625 18.4483 20.61 18.4333 20.5763 18.4033C20.5463 18.3695 20.5313 18.317 20.5313 18.2458V14.6008C20.5313 14.5295 20.5463 14.479 20.5763 14.449C20.61 14.4152 20.6625 14.3983 20.7336 14.3983H21.3181C21.3894 14.3983 21.4493 14.4095 21.498 14.432C21.5504 14.4545 21.601 14.494 21.6497 14.5502L22.7401 15.799V14.6008C22.7401 14.5295 22.7551 14.479 22.7851 14.449C22.8187 14.4152 22.8712 14.3983 22.9424 14.3983H23.7854C23.8567 14.3983 23.9073 14.4152 23.9372 14.449C23.9709 14.479 23.9878 14.5295 23.9878 14.6008V18.2458C23.9878 18.317 23.9709 18.3695 23.9372 18.4033C23.9073 18.4333 23.8567 18.4483 23.7854 18.4483H22.9424C22.8712 18.4483 22.8187 18.4333 22.7851 18.4033C22.7551 18.3695 22.7401 18.317 22.7401 18.2458V17.554L21.779 16.3895V18.2458C21.779 18.317 21.7621 18.3695 21.7284 18.4033C21.6985 18.4333 21.6479 18.4483 21.5767 18.4483ZM27.4552 18.4483H26.0838C25.6154 18.4483 25.267 18.3545 25.0384 18.167C24.8136 17.9795 24.7012 17.6908 24.7012 17.3008V15.5515C24.7012 15.1615 24.8136 14.8727 25.0384 14.6852C25.267 14.494 25.6154 14.3983 26.0838 14.3983H27.4552C27.5263 14.3983 27.5769 14.4152 27.6069 14.449C27.6406 14.479 27.6575 14.5295 27.6575 14.6008V15.2815C27.6575 15.3527 27.6406 15.4052 27.6069 15.439C27.5769 15.469 27.5263 15.484 27.4552 15.484H26.3255C26.2093 15.484 26.1231 15.5083 26.067 15.557C26.0107 15.602 25.9826 15.6715 25.9826 15.7652V17.104C25.9826 17.1977 26.0107 17.267 26.067 17.312C26.1231 17.3533 26.2093 17.374 26.3255 17.374H27.4552C27.5263 17.374 27.5769 17.3908 27.6069 17.4245C27.6406 17.4545 27.6575 17.5052 27.6575 17.5765V18.2458C27.6575 18.317 27.6406 18.3695 27.6069 18.4033C27.5769 18.4333 27.5263 18.4483 27.4552 18.4483ZM29.3657 18.4483H28.4945C28.4233 18.4483 28.3709 18.4333 28.3371 18.4033C28.3072 18.3695 28.2922 18.317 28.2922 18.2458V14.6008C28.2922 14.5295 28.3072 14.479 28.3371 14.449C28.3709 14.4152 28.4233 14.3983 28.4945 14.3983H29.3657C29.4369 14.3983 29.4875 14.4152 29.5174 14.449C29.5511 14.479 29.568 14.5295 29.568 14.6008V15.8215H30.5066V14.6008C30.5066 14.5295 30.5216 14.479 30.5516 14.449C30.5853 14.4152 30.6377 14.3983 30.7089 14.3983H31.5801C31.6513 14.3983 31.7018 14.4152 31.7318 14.449C31.7656 14.479 31.7824 14.5295 31.7824 14.6008V18.2458C31.7824 18.317 31.7656 18.3695 31.7318 18.4033C31.7018 18.4333 31.6513 18.4483 31.5801 18.4483H30.7089C30.6377 18.4483 30.5853 18.4333 30.5516 18.4033C30.5216 18.3695 30.5066 18.317 30.5066 18.2458V16.997H29.568V18.2458C29.568 18.317 29.5511 18.3695 29.5174 18.4033C29.4875 18.4333 29.4369 18.4483 29.3657 18.4483ZM35.3669 18.4483H32.7591C32.6879 18.4483 32.6355 18.4333 32.6017 18.4033C32.5718 18.3695 32.5568 18.317 32.5568 18.2458V14.6008C32.5568 14.5295 32.5718 14.479 32.6017 14.449C32.6355 14.4152 32.6879 14.3983 32.7591 14.3983H35.3669C35.4381 14.3983 35.4887 14.4152 35.5187 14.449C35.5524 14.479 35.5693 14.5295 35.5693 14.6008V15.259C35.5693 15.3302 35.5524 15.3827 35.5187 15.4165C35.4887 15.4465 35.4381 15.4615 35.3669 15.4615H33.8157V15.8945H34.9117C34.9829 15.8945 35.0335 15.9115 35.0635 15.9452C35.0972 15.9752 35.1141 16.0258 35.1141 16.097V16.699C35.1141 16.7702 35.0972 16.8227 35.0635 16.8565C35.0335 16.8865 34.9829 16.9015 34.9117 16.9015H33.8157V17.3852H35.3669C35.4381 17.3852 35.4887 17.402 35.5187 17.4358C35.5524 17.4658 35.5693 17.5165 35.5693 17.5877V18.2458C35.5693 18.317 35.5524 18.3695 35.5187 18.4033C35.4887 18.4333 35.4381 18.4483 35.3669 18.4483ZM37.5043 15.4108V16.1308H37.9259C38.0233 16.1308 38.0888 16.1065 38.1226 16.0577C38.1563 16.0052 38.1732 15.9415 38.1732 15.8665V15.6752C38.1732 15.6002 38.1563 15.5383 38.1226 15.4895C38.0888 15.437 38.0233 15.4108 37.9259 15.4108H37.5043ZM37.302 18.4483H36.4365C36.3653 18.4483 36.3128 18.4333 36.2791 18.4033C36.2491 18.3695 36.2342 18.317 36.2342 18.2458V14.6008C36.2342 14.5295 36.2491 14.479 36.2791 14.449C36.3128 14.4152 36.3653 14.3983 36.4365 14.3983H38.3081C38.7277 14.3983 39.0162 14.4865 39.1736 14.6627C39.3347 14.8352 39.4152 15.0602 39.4152 15.3377V15.5965C39.4152 15.754 39.3909 15.889 39.3422 16.0015C39.2972 16.1102 39.2167 16.189 39.1005 16.2377C39.3028 16.2602 39.4658 16.3427 39.5895 16.4852C39.7169 16.6277 39.7806 16.817 39.7806 17.0533V18.2458C39.7806 18.317 39.7637 18.3695 39.73 18.4033C39.7 18.4333 39.6494 18.4483 39.5782 18.4483H38.7071C38.6359 18.4483 38.5834 18.4333 38.5497 18.4033C38.5198 18.3695 38.5048 18.317 38.5048 18.2458V17.3852C38.5048 17.3027 38.4879 17.2427 38.4542 17.2052C38.4242 17.164 38.3699 17.1433 38.2912 17.1433H37.5043V18.2458C37.5043 18.317 37.4875 18.3695 37.4538 18.4033C37.4238 18.4333 37.3732 18.4483 37.302 18.4483Z" fill="url(#paint1_linear_4945_47503)"></path>
<mask id="mask1_4945_47503" style="mask-type:luminance" maskUnits="userSpaceOnUse" x="6" y="20" width="36" height="7">
<path d="M41.7777 20.2296H6.18237V26.4918H41.7777V20.2296Z" fill="white"></path>
</mask>
<g mask="url(#mask1_4945_47503)">
<path d="M41.7204 20.2296H6.18237V26.4624H41.7204V20.2296Z" fill="#18202A"></path>
<path d="M15.2059 21.3429H7.2948V25.3492H15.2059V21.3429Z" fill="url(#paint2_linear_4945_47503)"></path>
<path d="M23.6733 21.3429H15.7621V25.3492H23.6733V21.3429Z" fill="url(#paint3_linear_4945_47503)"></path>
<path d="M32.1407 21.3429H24.2296V25.3492H32.1407V21.3429Z" fill="url(#paint4_linear_4945_47503)"></path>
<path d="M40.608 21.3429H32.6969V25.3492H40.608V21.3429Z" fill="url(#paint5_linear_4945_47503)"></path>
</g>
<mask id="mask2_4945_47503" style="mask-type:luminance" maskUnits="userSpaceOnUse" x="7" y="27" width="34" height="8">
<path d="M38.9207 27.4886H9.03933C8.00465 27.4886 7.16589 28.3281 7.16589 29.3636V32.1761C7.16589 33.2116 8.00465 34.0511 9.03933 34.0511H38.9207C39.9553 34.0511 40.7941 33.2116 40.7941 32.1761V29.3636C40.7941 28.3281 39.9553 27.4886 38.9207 27.4886Z" fill="white"></path>
</mask>
<g mask="url(#mask2_4945_47503)">
<path d="M8.87064 33.1137H7.85431C7.77128 33.1137 7.71007 33.0962 7.67074 33.0612C7.63573 33.0218 7.61829 32.9606 7.61829 32.8774V28.6249C7.61829 28.5419 7.63573 28.4828 7.67074 28.4477C7.71007 28.4084 7.77128 28.3887 7.85431 28.3887H9.86077C10.4553 28.3887 10.8618 28.5068 11.0804 28.743C11.2989 28.9793 11.4082 29.2877 11.4082 29.6684V30.5084C11.4082 30.8889 11.2989 31.1974 11.0804 31.4337C10.8618 31.6699 10.4553 31.788 9.86077 31.788H9.10672V32.8774C9.10672 32.9606 9.08706 33.0218 9.04767 33.0612C9.01272 33.0962 8.95373 33.1137 8.87064 33.1137ZM9.09359 29.6159V30.6068H9.68374C9.81048 30.6068 9.89357 30.5739 9.93289 30.5084C9.97222 30.4427 9.99188 30.3684 9.99188 30.2852V29.9374C9.99188 29.8544 9.97222 29.7799 9.93289 29.7143C9.89357 29.6487 9.81048 29.6159 9.68374 29.6159H9.09359ZM13.5697 29.5699V30.4099H14.0615C14.1751 30.4099 14.2516 30.3815 14.291 30.3246C14.3303 30.2634 14.35 30.189 14.35 30.1014V29.8784C14.35 29.7909 14.3303 29.7187 14.291 29.6618C14.2516 29.6006 14.1751 29.5699 14.0615 29.5699H13.5697ZM13.3337 33.1137H12.3239C12.2408 33.1137 12.1796 33.0962 12.1403 33.0612C12.1054 33.0218 12.0878 32.9606 12.0878 32.8774V28.6249C12.0878 28.5419 12.1054 28.4828 12.1403 28.4477C12.1796 28.4084 12.2408 28.3887 12.3239 28.3887H14.5074C14.997 28.3887 15.3335 28.4915 15.5171 28.6971C15.7051 28.8984 15.7991 29.1609 15.7991 29.4846V29.7864C15.7991 29.9702 15.7707 30.1277 15.7139 30.2589C15.6614 30.3859 15.5675 30.4778 15.4319 30.5346C15.6679 30.5609 15.8581 30.6571 16.0023 30.8234C16.151 30.9897 16.2253 31.2105 16.2253 31.4861V32.8774C16.2253 32.9606 16.2056 33.0218 16.1663 33.0612C16.1314 33.0962 16.0723 33.1137 15.9892 33.1137H14.9729C14.8898 33.1137 14.8286 33.0962 14.7893 33.0612C14.7544 33.0218 14.7369 32.9606 14.7369 32.8774V31.8734C14.7369 31.7772 14.7172 31.7071 14.6778 31.6634C14.6429 31.6152 14.5795 31.5911 14.4877 31.5911H13.5697V32.8774C13.5697 32.9606 13.55 33.0218 13.5107 33.0612C13.4758 33.0962 13.4168 33.1137 13.3337 33.1137ZM20.2392 33.1137H17.1968C17.1138 33.1137 17.0525 33.0962 17.0132 33.0612C16.9782 33.0218 16.9607 32.9606 16.9607 32.8774V28.6249C16.9607 28.5419 16.9782 28.4828 17.0132 28.4477C17.0525 28.4084 17.1138 28.3887 17.1968 28.3887H20.2392C20.3223 28.3887 20.3813 28.4084 20.4163 28.4477C20.4556 28.4828 20.4753 28.5419 20.4753 28.6249V29.3927C20.4753 29.4759 20.4556 29.5371 20.4163 29.5764C20.3813 29.6115 20.3223 29.6289 20.2392 29.6289H18.4295V30.1343H19.7081C19.7912 30.1343 19.8502 30.1539 19.8851 30.1934C19.9245 30.2284 19.9442 30.2874 19.9442 30.3705V31.0727C19.9442 31.1559 19.9245 31.2171 19.8851 31.2564C19.8502 31.2915 19.7912 31.3089 19.7081 31.3089H18.4295V31.8734H20.2392C20.3223 31.8734 20.3813 31.893 20.4163 31.9324C20.4556 31.9674 20.4753 32.0265 20.4753 32.1096V32.8774C20.4753 32.9606 20.4556 33.0218 20.4163 33.0612C20.3813 33.0962 20.3223 33.1137 20.2392 33.1137ZM22.4641 33.1137H21.487C21.404 33.1137 21.3427 33.0962 21.3034 33.0612C21.2685 33.0218 21.251 32.9606 21.251 32.8774V28.6249C21.251 28.5419 21.2685 28.4828 21.3034 28.4477C21.3427 28.4084 21.404 28.3887 21.487 28.3887H22.5427C22.6127 28.3887 22.6694 28.404 22.7132 28.4346C22.7612 28.4652 22.805 28.5156 22.8443 28.5855L23.4345 29.6552C23.4563 29.6946 23.4738 29.7231 23.4869 29.7405C23.5044 29.7581 23.5262 29.7668 23.5525 29.7668H23.6115C23.6377 29.7668 23.6574 29.7581 23.6705 29.7405C23.688 29.7231 23.7077 29.6946 23.7295 29.6552L24.3131 28.5855C24.3525 28.5156 24.394 28.4652 24.4377 28.4346C24.4857 28.404 24.5447 28.3887 24.6148 28.3887H25.6769C25.76 28.3887 25.8191 28.4084 25.854 28.4477C25.8934 28.4828 25.913 28.5419 25.913 28.6249V32.8774C25.913 32.9606 25.8934 33.0218 25.854 33.0612C25.8191 33.0962 25.76 33.1137 25.6769 33.1137H24.6672C24.5841 33.1137 24.5229 33.0962 24.4836 33.0612C24.4486 33.0218 24.4311 32.9606 24.4311 32.8774V30.5674L24.0443 31.2827C24.0049 31.3572 23.9569 31.4118 23.9 31.4468C23.8476 31.4774 23.7798 31.4927 23.6967 31.4927H23.4345C23.3514 31.4927 23.2815 31.4774 23.2246 31.4468C23.1722 31.4118 23.1263 31.3572 23.0869 31.2827L22.7001 30.5674V32.8774C22.7001 32.9606 22.6804 33.0218 22.6411 33.0612C22.6061 33.0962 22.5471 33.1137 22.4641 33.1137ZM26.9466 33.1137C26.8636 33.1137 26.8023 33.0962 26.763 33.0612C26.728 33.0218 26.7105 32.9606 26.7105 32.8774V32.0964C26.7105 32.0134 26.728 31.9544 26.763 31.9193C26.8023 31.8799 26.8636 31.8602 26.9466 31.8602H27.5958V29.6552H26.9466C26.8636 29.6552 26.8023 29.6378 26.763 29.6027C26.728 29.5634 26.7105 29.5021 26.7105 29.4189V28.6249C26.7105 28.5419 26.728 28.4828 26.763 28.4477C26.8023 28.4084 26.8636 28.3887 26.9466 28.3887H29.7399C29.823 28.3887 29.882 28.4084 29.9169 28.4477C29.9563 28.4828 29.976 28.5419 29.976 28.6249V29.4189C29.976 29.5021 29.9563 29.5634 29.9169 29.6027C29.882 29.6378 29.823 29.6552 29.7399 29.6552H29.1039V31.8602H29.7399C29.823 31.8602 29.882 31.8799 29.9169 31.9193C29.9563 31.9544 29.976 32.0134 29.976 32.0964V32.8774C29.976 32.9606 29.9563 33.0218 29.9169 33.0612C29.882 33.0962 29.823 33.1137 29.7399 33.1137H26.9466ZM34.805 31.8734C34.805 32.0746 34.7745 32.2584 34.7132 32.4246C34.6564 32.5865 34.5515 32.7264 34.3985 32.8446C34.2499 32.9584 34.0444 33.048 33.7821 33.1137C33.5198 33.1793 33.1854 33.2121 32.7789 33.2121C32.3723 33.2121 32.0379 33.1793 31.7757 33.1137C31.5134 33.048 31.3058 32.9584 31.1527 32.8446C31.0042 32.7264 30.8992 32.5865 30.838 32.4246C30.7812 32.2584 30.7527 32.0746 30.7527 31.8734V28.6249C30.7527 28.5419 30.7703 28.4828 30.8052 28.4477C30.8446 28.4084 30.9058 28.3887 30.9888 28.3887H32.0183C32.1014 28.3887 32.1604 28.4084 32.1953 28.4477C32.2346 28.4828 32.2543 28.5419 32.2543 28.6249V31.6174C32.2543 31.7049 32.2871 31.7793 32.3527 31.8405C32.4183 31.8974 32.5648 31.9259 32.792 31.9259C33.0238 31.9259 33.1723 31.8974 33.2379 31.8405C33.3034 31.7793 33.3362 31.7049 33.3362 31.6174V28.6249C33.3362 28.5419 33.3537 28.4828 33.3887 28.4477C33.4281 28.4084 33.4893 28.3887 33.5723 28.3887H34.569C34.6521 28.3887 34.711 28.4084 34.746 28.4477C34.7853 28.4828 34.805 28.5419 34.805 28.6249V31.8734ZM36.8908 33.1137H35.9138C35.8307 33.1137 35.7695 33.0962 35.7302 33.0612C35.6952 33.0218 35.6777 32.9606 35.6777 32.8774V28.6249C35.6777 28.5419 35.6952 28.4828 35.7302 28.4477C35.7695 28.4084 35.8307 28.3887 35.9138 28.3887H36.9695C37.0394 28.3887 37.0962 28.404 37.14 28.4346C37.188 28.4652 37.2318 28.5156 37.2711 28.5855L37.8612 29.6552C37.8831 29.6946 37.9006 29.7231 37.9137 29.7405C37.9311 29.7581 37.953 29.7668 37.9793 29.7668H38.0383C38.0645 29.7668 38.0842 29.7581 38.0973 29.7405C38.1147 29.7231 38.1344 29.6946 38.1563 29.6552L38.7399 28.5855C38.7792 28.5156 38.8207 28.4652 38.8644 28.4346C38.9125 28.404 38.9715 28.3887 39.0415 28.3887H40.1037C40.1868 28.3887 40.2457 28.4084 40.2807 28.4477C40.3201 28.4828 40.3398 28.5419 40.3398 28.6249V32.8774C40.3398 32.9606 40.3201 33.0218 40.2807 33.0612C40.2457 33.0962 40.1868 33.1137 40.1037 33.1137H39.0939C39.0109 33.1137 38.9497 33.0962 38.9104 33.0612C38.8753 33.0218 38.8579 32.9606 38.8579 32.8774V30.5674L38.471 31.2827C38.4317 31.3572 38.3835 31.4118 38.3268 31.4468C38.2743 31.4774 38.2065 31.4927 38.1235 31.4927H37.8612C37.7781 31.4927 37.7082 31.4774 37.6514 31.4468C37.599 31.4118 37.553 31.3572 37.5137 31.2827L37.1268 30.5674V32.8774C37.1268 32.9606 37.1072 33.0218 37.0679 33.0612C37.0328 33.0962 36.9738 33.1137 36.8908 33.1137Z" fill="black"></path>
</g>
<path d="M26.9307 34.0511H21.0293C19.9946 34.0511 19.1559 34.8906 19.1559 35.9261V39.8636C19.1559 40.8991 19.9946 41.7386 21.0293 41.7386H26.9307C27.9653 41.7386 28.8041 40.8991 28.8041 39.8636V35.9261C28.8041 34.8906 27.9653 34.0511 26.9307 34.0511Z" fill="black"></path>
<path d="M22.3914 39.9575H21.4808C21.4097 39.9575 21.3572 39.9425 21.3235 39.9125C21.2935 39.8788 21.2785 39.8263 21.2785 39.755V36.9931H20.4523C20.3811 36.9931 20.3287 36.9781 20.295 36.9481C20.265 36.9143 20.25 36.8618 20.25 36.7906V36.11C20.25 36.0388 20.265 35.9881 20.295 35.9581C20.3287 35.9243 20.3811 35.9075 20.4523 35.9075H23.4199C23.491 35.9075 23.5416 35.9243 23.5716 35.9581C23.6053 35.9881 23.6222 36.0388 23.6222 36.11V36.7906C23.6222 36.8618 23.6053 36.9143 23.5716 36.9481C23.5416 36.9781 23.491 36.9931 23.4199 36.9931H22.5937V39.755C22.5937 39.8263 22.5768 39.8788 22.5431 39.9125C22.5131 39.9425 22.4625 39.9575 22.3914 39.9575ZM26.563 39.9575H25.1017C25.0305 39.9575 24.9706 39.9443 24.9218 39.9181C24.8769 39.8918 24.8413 39.8431 24.8151 39.7718L24.2643 38.3937C24.2306 38.3112 24.2024 38.24 24.18 38.18C24.1575 38.1163 24.1388 38.0563 24.1238 38C24.1088 37.9438 24.0975 37.8856 24.09 37.8256C24.0863 37.7618 24.0845 37.685 24.0845 37.595V36.11C24.0845 36.0388 24.0994 35.9881 24.1294 35.9581C24.1631 35.9243 24.2156 35.9075 24.2868 35.9075H25.1804C25.2516 35.9075 25.3059 35.9243 25.3434 35.9581C25.3809 35.9881 25.3996 36.0388 25.3996 36.11V37.6625C25.3996 37.7 25.4034 37.7375 25.4109 37.775C25.4183 37.8125 25.4296 37.8518 25.4445 37.8931L25.7087 38.6806C25.72 38.7181 25.7331 38.7443 25.7481 38.7593C25.7631 38.7706 25.7855 38.7763 25.8155 38.7763H25.8773C25.9073 38.7763 25.9298 38.7706 25.9448 38.7593C25.9598 38.7443 25.9729 38.7181 25.9841 38.6806L26.2482 37.8875C26.2632 37.8463 26.2745 37.8068 26.282 37.7693C26.2895 37.7318 26.2932 37.6943 26.2932 37.6568V36.11C26.2932 36.0388 26.3082 35.9881 26.3382 35.9581C26.3719 35.9243 26.4244 35.9075 26.4955 35.9075H27.3779C27.4491 35.9075 27.4997 35.9243 27.5297 35.9581C27.5634 35.9881 27.5803 36.0388 27.5803 36.11V37.595C27.5803 37.685 27.5765 37.7618 27.569 37.8256C27.5653 37.8856 27.5559 37.9438 27.5409 38C27.5259 38.0563 27.5072 38.1163 27.4847 38.18C27.4622 38.24 27.4342 38.3112 27.4004 38.3937L26.8497 39.7718C26.8234 39.8431 26.7859 39.8918 26.7372 39.9181C26.6923 39.9443 26.6342 39.9575 26.563 39.9575Z" fill="url(#paint6_linear_4945_47503)"></path>
</g>
<g filter="url(#filter0_d_4945_47503)">
<path d="M71.3452 29.5104C70.9106 29.5104 70.5653 29.344 70.3093 29.0112C70.0791 28.6528 69.964 28.1792 69.964 27.5904C69.964 26.2848 70.5011 25.632 71.5754 25.632H75.6424C76.589 25.632 77.2539 25.3632 77.6376 24.8256C78.047 24.288 78.2515 23.6992 78.2515 23.0592V16.7616C78.2515 16.1216 78.047 15.5328 77.6376 14.9952C77.2539 14.4576 76.589 14.1888 75.6424 14.1888H67.5852V39.264C67.5852 40.4928 66.8178 41.1072 65.2831 41.1072C63.7993 41.1072 63.0577 40.4928 63.0577 39.264V12.6144C63.0577 11.6928 63.2879 11.0784 63.7484 10.7712C64.2088 10.464 64.7717 10.3104 65.4366 10.3104H76.64C77.2797 10.3104 77.9571 10.4512 78.6735 10.7328C79.3899 11.0144 80.0805 11.3728 80.7454 11.808H80.707C81.3718 12.2944 81.8838 12.9344 82.2417 13.728C82.5996 14.496 82.7789 15.392 82.7789 16.416V23.3664C82.7789 25.44 82.0882 26.9888 80.707 28.0128C80.0422 28.4992 79.3641 28.8704 78.6735 29.1264C77.9829 29.3824 77.3048 29.5104 76.64 29.5104H71.3452ZM92.4092 39.1872C92.4092 40.416 91.7054 41.0304 90.299 41.0304C88.841 41.0304 88.112 40.416 88.112 39.1872V23.2896C88.112 21.1904 88.7385 19.7312 89.992 18.912C91.245 18.0928 92.6904 17.6832 94.3276 17.6832H98.7016C99.6476 17.6832 100.121 18.2848 100.121 19.488C100.172 20.6912 99.6991 21.2928 98.7016 21.2928H94.6346C93.7137 21.2928 93.1124 21.472 92.8313 21.8304C92.5495 22.1888 92.4092 22.688 92.4092 23.328V39.1872ZM107.586 34.656C107.586 35.2704 107.777 35.8464 108.161 36.384C108.571 36.9216 109.248 37.1904 110.195 37.1904H114.991C115.937 37.1904 116.602 36.96 116.986 36.4992C117.395 36.0128 117.6 35.4624 117.6 34.848V34.4256C117.6 33.2224 118.303 32.6208 119.71 32.6208C121.117 32.6208 121.82 33.2224 121.82 34.4256V34.8864C121.82 35.9616 121.641 36.8448 121.283 37.536C120.95 38.2272 120.439 38.8288 119.748 39.3408C118.393 40.3136 117.037 40.8 115.681 40.8H109.235C107.88 40.8 106.562 40.3136 105.283 39.3408C104.67 38.8288 104.197 38.1888 103.864 37.4208C103.531 36.6272 103.365 35.7184 103.365 34.6944V23.7504C103.365 21.6768 104.005 20.1408 105.283 19.1424C105.923 18.6816 106.575 18.3232 107.24 18.0672C107.931 17.7856 108.596 17.6448 109.235 17.6448H115.681C116.295 17.6448 116.973 17.7728 117.715 18.0288C118.456 18.2592 119.147 18.5792 119.787 18.9888C120.4 19.424 120.887 20.0256 121.245 20.7936C121.628 21.5616 121.82 22.4704 121.82 23.52V28.704C121.82 29.2928 121.641 29.8176 121.283 30.2784C120.95 30.7392 120.324 30.9696 119.403 30.9696H111.115C110.195 30.9696 109.708 30.368 109.657 29.1648C109.657 27.9616 110.144 27.36 111.115 27.36H117.638L117.6 23.7888C117.6 23.1488 117.395 22.5728 116.986 22.0608C116.602 21.5232 115.937 21.2544 114.991 21.2544H110.195C109.248 21.2544 108.571 21.5232 108.161 22.0608C107.777 22.5728 107.586 23.1488 107.586 23.7888V34.656ZM138.602 24.096C138.602 23.7632 138.551 23.4432 138.449 23.136C138.346 22.8032 138.219 22.496 138.065 22.2144C137.733 21.6 137.042 21.2928 135.993 21.2928H133.538C132.489 21.2928 131.786 21.6 131.428 22.2144C131.121 22.8032 130.967 23.4304 130.967 24.096V39.3024C130.967 40.5056 130.263 41.1072 128.857 41.1072C127.399 41.1072 126.67 40.5056 126.67 39.3024V23.7504C126.67 21.6512 127.361 20.1152 128.742 19.1424C130.148 18.1696 131.517 17.6832 132.847 17.6832H136.722C137.311 17.6832 137.963 17.7984 138.679 18.0288C139.395 18.2592 140.086 18.6176 140.751 19.104C141.39 18.6176 142.056 18.2592 142.746 18.0288C143.462 17.7984 144.14 17.6832 144.78 17.6832H148.617C149.972 17.6832 151.327 18.1696 152.684 19.1424C154.09 20.0896 154.794 21.6256 154.794 23.7504V39.3024C154.794 40.5056 154.077 41.1072 152.645 41.1072C151.212 41.1072 150.497 40.5056 150.497 39.3024V24.096C150.497 23.7632 150.458 23.4304 150.381 23.0976C150.305 22.7648 150.164 22.4576 149.959 22.176L149.998 22.2144C149.793 21.8816 149.537 21.6512 149.23 21.5232C148.923 21.3696 148.476 21.2928 147.888 21.2928H145.47C144.396 21.2928 143.692 21.6 143.359 22.2144C143.027 22.7776 142.861 23.4048 142.861 24.096V39.3024C142.861 40.5056 142.157 41.1072 140.751 41.1072C139.318 41.1072 138.602 40.5056 138.602 39.3024V24.096ZM163.792 39.1872C163.792 40.416 163.088 41.0304 161.681 41.0304C160.249 41.0304 159.533 40.416 159.533 39.1872V19.3728C159.533 18.144 160.249 17.5296 161.681 17.5296C163.088 17.5296 163.792 18.144 163.792 19.3728V39.1872ZM164.597 12.6912C164.597 13.5104 164.316 14.2016 163.753 14.7648C163.19 15.328 162.5 15.6096 161.681 15.6096C160.862 15.6096 160.159 15.328 159.571 14.7648C159.008 14.2016 158.727 13.5104 158.727 12.6912C158.727 11.8464 159.008 11.1424 159.571 10.5792C160.159 10.016 160.862 9.73438 161.681 9.73438C162.5 9.73438 163.19 10.016 163.753 10.5792C164.316 11.1424 164.597 11.8464 164.597 12.6912ZM187.578 34.6944C187.578 35.7184 187.399 36.6272 187.041 37.4208C186.682 38.2144 186.171 38.8544 185.506 39.3408H185.544C184.905 39.776 184.227 40.1344 183.511 40.416C182.795 40.672 182.104 40.8 181.439 40.8H175.262C174.622 40.8 173.932 40.672 173.19 40.416C172.474 40.1344 171.796 39.776 171.156 39.3408H171.194C170.529 38.8544 170.018 38.2144 169.66 37.4208C169.302 36.6272 169.123 35.7184 169.123 34.6944V19.296C169.123 18.0672 169.826 17.4528 171.233 17.4528C172.64 17.4528 173.343 18.0672 173.343 19.296V34.3872C173.343 35.104 173.522 35.7312 173.881 36.2688C174.213 36.8832 174.903 37.1904 175.952 37.1904H180.748C181.771 37.1904 182.449 36.8832 182.782 36.2688L182.744 36.3072C183.152 35.6928 183.357 35.0528 183.357 34.3872V19.296C183.357 18.0672 184.061 17.4528 185.468 17.4528C186.874 17.4528 187.578 18.0672 187.578 19.296V34.6944ZM204.285 24.096C204.285 23.7632 204.234 23.4432 204.131 23.136C204.029 22.8032 203.901 22.496 203.748 22.2144C203.415 21.6 202.724 21.2928 201.676 21.2928H199.22C198.172 21.2928 197.468 21.6 197.11 22.2144C196.803 22.8032 196.65 23.4304 196.65 24.096V39.3024C196.65 40.5056 195.946 41.1072 194.539 41.1072C193.081 41.1072 192.352 40.5056 192.352 39.3024V23.7504C192.352 21.6512 193.043 20.1152 194.424 19.1424C195.831 18.1696 197.199 17.6832 198.53 17.6832H202.405C202.993 17.6832 203.645 17.7984 204.362 18.0288C205.078 18.2592 205.769 18.6176 206.433 19.104C207.073 18.6176 207.738 18.2592 208.429 18.0288C209.145 17.7984 209.822 17.6832 210.462 17.6832H214.299C215.654 17.6832 217.01 18.1696 218.366 19.1424C219.773 20.0896 220.476 21.6256 220.476 23.7504V39.3024C220.476 40.5056 219.76 41.1072 218.327 41.1072C216.895 41.1072 216.179 40.5056 216.179 39.3024V24.096C216.179 23.7632 216.141 23.4304 216.064 23.0976C215.987 22.7648 215.846 22.4576 215.642 22.176L215.68 22.2144C215.476 21.8816 215.22 21.6512 214.913 21.5232C214.606 21.3696 214.158 21.2928 213.57 21.2928H211.153C210.078 21.2928 209.375 21.6 209.042 22.2144C208.71 22.7776 208.544 23.4048 208.544 24.096V39.3024C208.544 40.5056 207.84 41.1072 206.433 41.1072C205.001 41.1072 204.285 40.5056 204.285 39.3024V24.096Z" fill="#E1EFFE"></path>
<path d="M246.826 41.4H239.056C238.449 41.4 238.001 41.272 237.713 41.016C237.457 40.728 237.33 40.2799 237.33 39.672V16.104H230.28C229.672 16.104 229.225 15.976 228.937 15.72C228.681 15.432 228.553 14.9839 228.553 14.376V8.56797C228.553 7.95999 228.681 7.52799 228.937 7.27197C229.225 6.98397 229.672 6.83997 230.28 6.83997H255.603C256.21 6.83997 256.641 6.98397 256.897 7.27197C257.185 7.52799 257.329 7.95999 257.329 8.56797V14.376C257.329 14.9839 257.185 15.432 256.897 15.72C256.641 15.976 256.21 16.104 255.603 16.104H248.552V39.672C248.552 40.2799 248.409 40.728 248.121 41.016C247.865 41.272 247.433 41.4 246.826 41.4ZM282.424 41.4H269.955C269.347 41.4 268.835 41.2879 268.42 41.064C268.036 40.84 267.732 40.4239 267.509 39.816L262.809 28.056C262.521 27.352 262.281 26.7439 262.089 26.232C261.897 25.6879 261.737 25.176 261.61 24.696C261.482 24.216 261.386 23.7199 261.322 23.208C261.29 22.6639 261.274 22.008 261.274 21.24V8.56797C261.274 7.95999 261.401 7.52799 261.657 7.27197C261.945 6.98397 262.393 6.83997 263 6.83997H270.626C271.233 6.83997 271.697 6.98397 272.017 7.27197C272.336 7.52799 272.496 7.95999 272.496 8.56797V21.816C272.496 22.1359 272.528 22.456 272.592 22.776C272.656 23.0959 272.752 23.4319 272.88 23.784L275.134 30.504C275.23 30.8239 275.342 31.048 275.47 31.176C275.598 31.272 275.789 31.32 276.045 31.32H276.573C276.829 31.32 277.021 31.272 277.149 31.176C277.276 31.048 277.388 30.8239 277.484 30.504L279.738 23.736C279.866 23.3839 279.962 23.0479 280.026 22.728C280.09 22.408 280.122 22.0879 280.122 21.768V8.56797C280.122 7.95999 280.25 7.52799 280.506 7.27197C280.793 6.98397 281.241 6.83997 281.849 6.83997H289.378C289.986 6.83997 290.417 6.98397 290.673 7.27197C290.961 7.52799 291.105 7.95999 291.105 8.56797V21.24C291.105 22.008 291.073 22.6639 291.009 23.208C290.977 23.7199 290.897 24.216 290.769 24.696C290.641 25.176 290.481 25.6879 290.29 26.232C290.098 26.7439 289.858 27.352 289.57 28.056L284.87 39.816C284.646 40.4239 284.326 40.84 283.911 41.064C283.527 41.2879 283.031 41.4 282.424 41.4Z" fill="#E3A008"></path>
<path d="M304.037 40.8384C303.091 40.8384 302.452 40.5952 302.119 40.1088C301.786 39.6223 301.62 39.0847 301.62 38.496V11.9616C301.62 10.7328 302.362 10.1184 303.845 10.1184C305.38 10.1184 306.148 10.7328 306.148 11.9616V36.96H318.962C319.883 36.96 320.344 37.5871 320.344 38.8416C320.395 40.1728 319.934 40.8384 318.962 40.8384H304.037ZM329.325 40.8C328.532 40.8 327.777 40.6975 327.061 40.4928C326.345 40.2624 325.654 39.9424 324.989 39.5328V39.5712C323.736 38.7775 323.109 37.3183 323.109 35.1936V33.312C323.109 32.2624 323.288 31.3536 323.646 30.5856C324.03 29.7919 324.555 29.1648 325.219 28.704H325.181C325.821 28.2688 326.498 27.9487 327.215 27.744C327.931 27.5136 328.622 27.3984 329.286 27.3984H337.766V23.8272C337.766 23.1871 337.561 22.6111 337.152 22.0992C336.768 21.5616 336.103 21.2928 335.157 21.2928H330.668C329.696 21.2928 329.018 21.5359 328.634 22.0224C328.276 22.4832 328.097 23.0335 328.097 23.6736V23.9808C328.097 25.312 327.381 25.9776 325.948 25.9776C324.516 25.9776 323.8 25.312 323.8 23.9808V23.6352C323.8 22.5856 323.979 21.7024 324.337 20.9856C324.721 20.2687 325.232 19.6672 325.872 19.1808H325.833C326.498 18.7456 327.189 18.3871 327.905 18.1056C328.647 17.824 329.351 17.6832 330.015 17.6832H335.847C336.487 17.6832 337.164 17.824 337.881 18.1056C338.622 18.3871 339.313 18.7456 339.953 19.1808H339.914C340.579 19.6672 341.091 20.3071 341.449 21.1008C341.807 21.8688 341.986 22.7647 341.986 23.7888V39.1872C341.986 40.416 341.283 41.0304 339.876 41.0304C339.595 41.0304 339.326 41.0176 339.07 40.992C338.84 40.9663 338.622 40.9024 338.418 40.8C338.239 40.672 338.085 40.5055 337.958 40.3008C337.855 40.0704 337.804 39.7759 337.804 39.4176L337.766 31.008H330.015C329.452 31.008 329.018 31.072 328.711 31.2C328.404 31.3279 328.161 31.5328 327.982 31.8144C327.777 32.2495 327.624 32.5951 327.521 32.8512C327.445 33.0816 327.406 33.3504 327.406 33.6576V35.1552C327.406 35.8207 327.598 36.3328 327.982 36.6912C328.391 37.024 329.082 37.1904 330.054 37.1904H334.351C335.298 37.1904 335.771 37.792 335.771 38.9952C335.771 39.5071 335.655 39.9424 335.425 40.3008C335.195 40.6336 334.837 40.8 334.351 40.8H329.325ZM365.404 34.6944C365.404 35.7184 365.225 36.6271 364.867 37.4208C364.509 38.2144 363.997 38.8543 363.333 39.3408H363.371C362.731 39.7759 362.053 40.1344 361.337 40.416C360.621 40.672 359.93 40.8 359.266 40.8H353.088C352.449 40.8 351.758 40.672 351.016 40.416C350.3 40.1344 349.622 39.7759 348.983 39.3408H349.021C348.356 38.8543 347.845 38.2144 347.487 37.4208C347.128 36.6271 346.949 35.7184 346.949 34.6944V19.296C346.949 18.0672 347.653 17.4528 349.06 17.4528C350.466 17.4528 351.17 18.0672 351.17 19.296V34.3872C351.17 35.104 351.349 35.7312 351.707 36.2688C352.039 36.8832 352.73 37.1904 353.779 37.1904H358.575C359.598 37.1904 360.276 36.8832 360.608 36.2688L360.57 36.3072C360.979 35.6928 361.184 35.0527 361.184 34.3872V19.296C361.184 18.0672 361.887 17.4528 363.294 17.4528C364.701 17.4528 365.404 18.0672 365.404 19.296V34.6944ZM374.438 39.1872C374.438 40.416 373.735 41.0304 372.327 41.0304C370.92 41.0304 370.217 40.416 370.217 39.1872V23.7504C370.217 22.7008 370.383 21.792 370.716 21.024C371.049 20.256 371.573 19.6288 372.289 19.1424C373.645 18.1696 375.001 17.6832 376.356 17.6832H382.533C383.838 17.6832 385.193 18.1696 386.6 19.1424C387.982 20.1151 388.672 21.6511 388.672 23.7504V39.1872C388.672 40.416 387.969 41.0304 386.562 41.0304C385.155 41.0304 384.452 40.416 384.452 39.1872V24.096C384.452 23.4304 384.247 22.7904 383.838 22.176L383.876 22.2144C383.544 21.6 382.866 21.2928 381.843 21.2928H377.047C375.998 21.2928 375.308 21.6 374.975 22.2144C374.617 22.752 374.438 23.3791 374.438 24.096V39.1872ZM412.09 34.6944C412.09 36.7936 411.4 38.3424 410.019 39.3408C408.663 40.3135 407.307 40.8 405.952 40.8H399.506C398.15 40.8 396.833 40.3135 395.554 39.3408C394.94 38.8288 394.466 38.1888 394.134 37.4208C393.802 36.6271 393.635 35.7184 393.635 34.6944V23.7504C393.635 21.6768 394.275 20.1408 395.554 19.1424C396.193 18.6816 396.845 18.3232 397.511 18.0672C398.201 17.7856 398.866 17.6448 399.506 17.6448H405.952C406.565 17.6448 407.243 17.7727 407.985 18.0288C408.727 18.2592 409.417 18.5791 410.057 18.9888C410.671 19.4239 411.156 20.0256 411.515 20.7936C411.899 21.5616 412.09 22.4704 412.09 23.52V25.44C412.09 26.6688 411.387 27.2832 409.98 27.2832C408.573 27.2832 407.87 26.6688 407.87 25.44V23.7888C407.87 23.1487 407.665 22.5727 407.256 22.0608C406.872 21.5232 406.207 21.2544 405.261 21.2544H400.465C399.518 21.2544 398.84 21.5232 398.431 22.0608C398.048 22.5727 397.856 23.1487 397.856 23.7888V34.656C397.856 35.2704 398.048 35.8464 398.431 36.384C398.84 36.9216 399.518 37.1904 400.465 37.1904H405.261C406.207 37.1904 406.872 36.9216 407.256 36.384C407.665 35.8464 407.87 35.2704 407.87 34.656V32.8896C407.87 31.6864 408.573 31.0848 409.98 31.0848C411.387 31.0848 412.09 31.6864 412.09 32.8896V34.6944ZM421.124 39.1872C421.124 40.416 420.421 41.0304 419.014 41.0304C417.606 41.0304 416.903 40.416 416.903 39.1872V11.9232C416.903 10.6944 417.606 10.08 419.014 10.08C420.421 10.08 421.124 10.6944 421.124 11.9232V17.6832H429.219C430.524 17.6832 431.879 18.1696 433.286 19.1424C434.668 20.1151 435.358 21.6511 435.358 23.7504V39.1872C435.358 40.416 434.655 41.0304 433.248 41.0304C431.841 41.0304 431.138 40.416 431.138 39.1872V24.096C431.138 23.4304 430.933 22.7904 430.524 22.176L430.562 22.2144C430.23 21.6 429.552 21.2928 428.529 21.2928H421.124V39.1872ZM444.654 34.656C444.654 35.2704 444.846 35.8464 445.23 36.384C445.639 36.9216 446.316 37.1904 447.263 37.1904H452.059C453.006 37.1904 453.671 36.96 454.054 36.4992C454.464 36.0127 454.668 35.4624 454.668 34.848V34.4256C454.668 33.2224 455.371 32.6208 456.778 32.6208C458.185 32.6208 458.889 33.2224 458.889 34.4256V34.8864C458.889 35.9616 458.709 36.8448 458.351 37.536C458.019 38.2272 457.507 38.8288 456.817 39.3408C455.461 40.3135 454.105 40.8 452.75 40.8H446.304C444.948 40.8 443.631 40.3135 442.352 39.3408C441.738 38.8288 441.265 38.1888 440.932 37.4208C440.6 36.6271 440.434 35.7184 440.434 34.6944V23.7504C440.434 21.6768 441.073 20.1408 442.352 19.1424C442.992 18.6816 443.644 18.3232 444.309 18.0672C444.999 17.7856 445.664 17.6448 446.304 17.6448H452.75C453.364 17.6448 454.042 17.7727 454.783 18.0288C455.525 18.2592 456.215 18.5791 456.855 18.9888C457.469 19.4239 457.955 20.0256 458.313 20.7936C458.697 21.5616 458.889 22.4704 458.889 23.52V28.704C458.889 29.2927 458.709 29.8176 458.351 30.2784C458.019 30.7392 457.392 30.9696 456.471 30.9696H448.184C447.263 30.9696 446.777 30.3679 446.726 29.1648C446.726 27.9616 447.212 27.36 448.184 27.36H454.706L454.668 23.7888C454.668 23.1487 454.464 22.5727 454.054 22.0608C453.671 21.5232 453.006 21.2544 452.059 21.2544H447.263C446.316 21.2544 445.639 21.5232 445.23 22.0608C444.846 22.5727 444.654 23.1487 444.654 23.7888V34.656ZM467.921 39.1872C467.921 40.416 467.217 41.0304 465.81 41.0304C464.352 41.0304 463.623 40.416 463.623 39.1872V23.2896C463.623 21.1903 464.25 19.7311 465.503 18.912C466.756 18.0928 468.202 17.6832 469.839 17.6832H474.213C475.159 17.6832 475.633 18.2848 475.633 19.488C475.684 20.6911 475.211 21.2928 474.213 21.2928H470.146C469.225 21.2928 468.624 21.472 468.343 21.8304C468.061 22.1887 467.921 22.6879 467.921 23.328V39.1872Z" fill="#E1EFFE"></path>
</g>
</g>
<defs>
<filter id="filter0_d_4945_47503" x="59.0577" y="6.83997" width="420.579" height="42.5599" filterUnits="userSpaceOnUse" color-interpolation-filters="sRGB">
<feFlood flood-opacity="0" result="BackgroundImageFix"></feFlood>
<feColorMatrix in="SourceAlpha" type="matrix" values="0 0 0 0 0 0 0 0 0 0 0 0 0 0 0 0 0 0 127 0" result="hardAlpha"></feColorMatrix>
<feOffset dy="4"></feOffset>
<feGaussianBlur stdDeviation="2"></feGaussianBlur>
<feComposite in2="hardAlpha" operator="out"></feComposite>
<feColorMatrix type="matrix" values="0 0 0 0 0 0 0 0 0 0 0 0 0 0 0 0 0 0 0.25 0"></feColorMatrix>
<feBlend mode="normal" in2="BackgroundImageFix" result="effect1_dropShadow_4945_47503"></feBlend>
<feBlend mode="normal" in="SourceGraphic" in2="effect1_dropShadow_4945_47503" result="shape"></feBlend>
</filter>
<linearGradient id="paint0_linear_4945_47503" x1="3.86237" y1="-2.9918" x2="55.595" y2="35.5658" gradientUnits="userSpaceOnUse">
<stop offset="0.15" stop-color="#AE6B00"></stop>
<stop offset="0.456731" stop-color="#EAC35A"></stop>
<stop offset="0.85" stop-color="#AE6B00"></stop>
</linearGradient>
<linearGradient id="paint1_linear_4945_47503" x1="10.9225" y1="5.82278" x2="25.4853" y2="26.4264" gradientUnits="userSpaceOnUse">
<stop offset="0.15" stop-color="#AE6B00"></stop>
<stop offset="0.4707" stop-color="#FFFFC8"></stop>
<stop offset="0.85" stop-color="#AE6B00"></stop>
</linearGradient>
<linearGradient id="paint2_linear_4945_47503" x1="7.2948" y1="23.3461" x2="15.2059" y2="23.3461" gradientUnits="userSpaceOnUse">
<stop stop-color="#FFFA90"></stop>
<stop offset="0.2076" stop-color="#FEF183"></stop>
<stop offset="0.5" stop-color="#FDE06A"></stop>
<stop offset="0.5829" stop-color="#FADB64"></stop>
<stop offset="0.6953" stop-color="#F1CC53"></stop>
<stop offset="0.8245" stop-color="#E3B436"></stop>
<stop offset="0.9654" stop-color="#CF920F"></stop>
<stop offset="1" stop-color="#C98904"></stop>
</linearGradient>
<linearGradient id="paint3_linear_4945_47503" x1="15.7621" y1="23.3461" x2="23.6733" y2="23.3461" gradientUnits="userSpaceOnUse">
<stop stop-color="#C68003"></stop>
<stop offset="0.0152" stop-color="#C9860A"></stop>
<stop offset="0.1232" stop-color="#DCB034"></stop>
<stop offset="0.2284" stop-color="#EBD055"></stop>
<stop offset="0.3284" stop-color="#F6E76D"></stop>
<stop offset="0.4213" stop-color="#FDF57B"></stop>
<stop offset="0.5" stop-color="#FFFA80"></stop>
<stop offset="0.6622" stop-color="#FEF77D"></stop>
<stop offset="0.8044" stop-color="#F9EC73"></stop>
<stop offset="0.9385" stop-color="#F2DA63"></stop>
<stop offset="1" stop-color="#EDCF59"></stop>
</linearGradient>
<linearGradient id="paint4_linear_4945_47503" x1="24.2296" y1="23.3461" x2="32.1407" y2="23.3461" gradientUnits="userSpaceOnUse">
<stop stop-color="#FFE976"></stop>
<stop offset="0.5" stop-color="#DBA926"></stop>
<stop offset="1" stop-color="#BA6B00"></stop>
</linearGradient>
<linearGradient id="paint5_linear_4945_47503" x1="32.6969" y1="23.3461" x2="40.608" y2="23.3461" gradientUnits="userSpaceOnUse">
<stop stop-color="#FFED78"></stop>
<stop offset="0.3883" stop-color="#FFD84B"></stop>
<stop offset="0.4631" stop-color="#FCD248"></stop>
<stop offset="0.5622" stop-color="#F4C13E"></stop>
<stop offset="0.6749" stop-color="#E8A62F"></stop>
<stop offset="0.7968" stop-color="#D68019"></stop>
<stop offset="0.802" stop-color="#D57E18"></stop>
<stop offset="0.838" stop-color="#D9871D"></stop>
<stop offset="0.896" stop-color="#E49E2A"></stop>
<stop offset="0.9683" stop-color="#F6C540"></stop>
<stop offset="1" stop-color="#FFD84B"></stop>
</linearGradient>
<linearGradient id="paint6_linear_4945_47503" x1="23.6549" y1="34.7486" x2="23.7364" y2="39.8138" gradientUnits="userSpaceOnUse">
<stop offset="0.0151" stop-color="#E9C156"></stop>
<stop offset="0.2864" stop-color="#FFFFAA"></stop>
<stop offset="0.6884" stop-color="#E1AB39"></stop>
<stop offset="0.8392" stop-color="#633110"></stop>
<stop offset="1" stop-color="#E9C156"></stop>
</linearGradient>
<clipPath id="clip0_4945_47503">
<rect width="479" height="48" fill="white"></rect>
</clipPath>
</defs>
</svg>